<svg width="152" height="152" viewBox="0 0 152 152" fill="none" xmlns="http://www.w3.org/2000/svg">
<g filter="url(#filter0_d_2_62)">
<circle cx="76" cy="71" r="56" fill="#D42038"/>
</g>
<path d="M70.67 85.0587C68.8253 85.0587 67.2111 86.5193 67.2111 88.1886C67.2111 89.8579 68.8253 91.3186 70.67 91.3186C72.5148 91.3186 74.129 89.8579 74.129 88.1886C74.129 86.5193 72.5148 85.0587 70.67 85.0587ZM94.8825 78.7988H67.2111C65.8276 78.7988 64.9052 77.9641 64.9052 76.7122C64.9052 75.4602 65.8276 74.6255 67.2111 74.6255H86.8117C89.8094 74.6255 92.5765 72.7476 93.4989 70.0349L97.1884 58.5584C97.6496 57.5151 96.7272 56.2632 95.5743 56.0545C95.3437 56.0545 95.1131 56.0545 94.8825 56.0545H66.5193C65.597 53.3419 63.0604 51.6726 60.0627 51.6726H57.9873C56.6038 51.6726 55.6814 52.5072 55.6814 53.7592C55.6814 55.0112 56.6038 55.8458 57.9873 55.8458H60.0627C60.9851 55.8458 61.9075 56.4718 62.3686 57.3065L62.5992 58.5584L66.5193 70.4523C62.5992 70.8696 59.8321 73.9995 60.2933 77.3381C60.7545 80.4681 63.7522 82.972 67.2111 82.972H94.8825C96.2661 82.972 97.1884 82.1374 97.1884 80.8854C97.1884 79.6334 96.2661 78.7988 94.8825 78.7988ZM89.1176 85.0587C87.2729 85.0587 85.6587 86.5193 85.6587 88.1886C85.6587 89.8579 87.2729 91.3186 89.1176 91.3186C90.9624 91.3186 92.5765 89.8579 92.5765 88.1886C92.5765 86.5193 90.9624 85.0587 89.1176 85.0587Z" fill="white"/>
<defs>
<filter id="filter0_d_2_62" x="0" y="0" width="152" height="152" filterUnits="userSpaceOnUse" color-interpolation-filters="sRGB">
<feFlood flood-opacity="0" result="BackgroundImageFix"/>
<feColorMatrix in="SourceAlpha" type="matrix" values="0 0 0 0 0 0 0 0 0 0 0 0 0 0 0 0 0 0 127 0" result="hardAlpha"/>
<feOffset dy="5"/>
<feGaussianBlur stdDeviation="10"/>
<feComposite in2="hardAlpha" operator="out"/>
<feColorMatrix type="matrix" values="0 0 0 0 0.427451 0 0 0 0 0.552941 0 0 0 0 0.678431 0 0 0 0.25 0"/>
<feBlend mode="normal" in2="BackgroundImageFix" result="effect1_dropShadow_2_62"/>
<feBlend mode="normal" in="SourceGraphic" in2="effect1_dropShadow_2_62" result="shape"/>
</filter>
</defs>
</svg>
